<?xml version="1.0" encoding="UTF-8" standalone="no"?>
<!DOCTYPE svg PUBLIC "-//W3C//DTD SVG 1.1//EN" "http://www.w3.org/Graphics/SVG/1.1/DTD/svg11.dtd">
<svg width="512" height="512" viewBox="0 0 1024 1024" version="1.1" xmlns="http://www.w3.org/2000/svg" xmlns:xlink="http://www.w3.org/1999/xlink" xml:space="preserve" xmlns:serif="http://www.serif.com/" style="fill-rule:evenodd;clip-rule:evenodd;stroke-linejoin:round;stroke-miterlimit:2;">
   <path fill="#fefffe" d="M 566.5,23.5 C 587.32,21.4821 600.487,30.4821 606,50.5C 606.904,58.2211 605.571,65.5544 602,72.5C 599.274,75.7172 596.774,79.0505 594.5,82.5C 597.489,93.4572 600.323,104.457 603,115.5C 613.669,120.67 621.503,128.67 626.5,139.5C 672.315,139.537 715.315,150.37 755.5,172C 779.288,186.787 798.788,205.954 814,229.5C 829.366,259.631 837.533,291.631 838.5,325.5C 883.637,333.648 922.137,353.981 954,386.5C 955.805,389.122 955.805,391.789 954,394.5C 943.981,406.26 932.148,415.76 918.5,423C 891.039,437.229 862.372,448.396 832.5,456.5C 831.039,505.896 823.206,554.23 809,601.5C 783.618,673.216 735.118,722.049 663.5,748C 648.129,753.592 632.462,758.092 616.5,761.5C 623.266,790.086 626.766,819.086 627,848.5C 629.695,861.249 634.362,873.249 641,884.5C 659.927,915.773 683.593,943.106 712,966.5C 713.104,970.72 713.604,975.053 713.5,979.5C 713.362,986.526 712.862,993.526 712,1000.5C 710.411,1003.38 707.911,1004.88 704.5,1005C 664.833,1005.67 625.167,1005.67 585.5,1005C 580.021,1003.23 577.688,999.394 578.5,993.5C 581.878,943.503 585.211,893.503 588.5,843.5C 588.278,818.449 585.112,793.782 579,769.5C 578.275,768.941 577.442,768.608 576.5,768.5C 542.311,773.233 507.977,774.9 473.5,773.5C 478.177,798.604 480.677,823.938 481,849.5C 485.631,866.761 492.965,882.761 503,897.5C 510.9,909.403 519.567,920.736 529,931.5C 540.951,943.629 553.284,955.296 566,966.5C 567.097,970.384 567.597,974.384 567.5,978.5C 567.271,985.519 566.771,992.519 566,999.5C 565.215,1001.29 564.049,1002.79 562.5,1004C 521.169,1004.94 479.835,1005.27 438.5,1005C 435.943,1004.31 434.109,1002.81 433,1000.5C 435.214,947.462 438.38,894.462 442.5,841.5C 441.931,817.182 438.931,793.182 433.5,769.5C 341.341,757.573 260.674,721.073 191.5,660C 173.971,642.805 156.804,625.305 140,607.5C 117.412,578.685 98.0787,547.685 82,514.5C 74.5418,498.459 68.8751,481.792 65,464.5C 63.2003,456.576 62.5336,448.576 63,440.5C 63.3953,436.981 64.3953,433.648 66,430.5C 77.5846,418.442 91.0846,408.942 106.5,402C 151.482,381.782 197.482,364.115 244.5,349C 295.869,332.655 347.536,317.321 399.5,303C 415.671,237.363 454.671,190.696 516.5,163C 525.485,159.834 534.152,156.167 542.5,152C 544.054,139.651 549.554,129.484 559,121.5C 559.711,109.497 560.044,97.4965 560,85.5C 545.208,77.5801 539.208,65.2467 542,48.5C 545.674,35.6601 553.841,27.3267 566.5,23.5 Z"/></svg>